# xmcd
#
# Track frame offsets:
#	150
#	15245
#	34767
#	46720
#	61935
#	75917
#	87725
#	108552
#	124105
#	136122
#	149590
#
# Disc length: 2134 seconds
#
# Revision: 0
# Processed by: cddbd v1.5.2PL0 Copyright (c) Steve Scherf et al.
# Submitted via: audiograbber 1.83.01
#
DISCID=8708540b
DTITLE=Scott Joss - Souvenirs
DYEAR=1996
DGENRE=Country
TTITLE0=Doin' Time in Bakersfield
TTITLE1=Mary Got a Baby
TTITLE2=I Never Got Anywhere With You
TTITLE3=She's so Lonely
TTITLE4=Workin' Girl
TTITLE5=Home Before Dark
TTITLE6=Souvenirs
TTITLE7=One of the Lonely
TTITLE8=Stay Out of My Arms
TTITLE9=My Baby's Gone
TTITLE10=Country King of the Blues
EXTD=
EXTT0=
EXTT1=
EXTT2=
EXTT3=
EXTT4=
EXTT5=
EXTT6=
EXTT7=
EXTT8=
EXTT9=
EXTT10=
PLAYORDER=
